<?xml version="1.0" encoding="utf-8"?>
<!-- Generator: Adobe Illustrator 16.0.0, SVG Export Plug-In . SVG Version: 6.00 Build 0)  -->
<!DOCTYPE svg PUBLIC "-//W3C//DTD SVG 1.1//EN" "http://www.w3.org/Graphics/SVG/1.1/DTD/svg11.dtd">
<svg version="1.1" id="Layer_1" xmlns="http://www.w3.org/2000/svg" xmlns:xlink="http://www.w3.org/1999/xlink" x="0px" y="0px"
	 width="24px" height="24px" viewBox="0 0 24 24" enable-background="new 0 0 24 24" xml:space="preserve">
<circle display="none" fill="none" stroke="#000000" stroke-width="1.7" stroke-miterlimit="10" cx="10.616" cy="10.769" r="9.15"/>
<path display="none" d="M16.693,16.931c-0.31,0.337-0.286,0.863,0.05,1.173l5.524,5.149c0.337,0.311,0.863,0.286,1.173-0.051l0,0
	c0.31-0.338,0.286-0.863-0.051-1.172l-5.524-5.149C17.528,16.57,17.002,16.594,16.693,16.931L16.693,16.931z"/>
<circle display="none" fill="none" stroke="#000000" stroke-width="1.7" stroke-miterlimit="10" cx="12" cy="9.645" r="3.592"/>
<path display="none" fill="none" stroke="#000000" stroke-width="1.7" stroke-miterlimit="10" d="M20.606,9.645
	c0,2.501-1.067,4.754-2.772,6.326c-1.533,1.416-6.005,6.71-6.005,6.71s-4.357-5.394-5.915-6.949
	c-1.557-1.559-2.521-3.71-2.521-6.087c0-4.753,3.854-8.606,8.607-8.606C16.753,1.039,20.606,4.892,20.606,9.645z"/>
<path fill="none" stroke="#000000" stroke-width="1.7" stroke-miterlimit="10" d="M21.336,20.816c0,1.055-0.856,1.912-1.913,1.912
	H4.577c-1.056,0-1.913-0.857-1.913-1.912v-8.21c0-1.056,0.856-1.913,1.913-1.913h14.846c1.057,0,1.913,0.857,1.913,1.913V20.816z"/>
<path fill="none" stroke="#000000" stroke-width="1.7" stroke-miterlimit="10" d="M16.521,5.707c0,1.766,0,4.987,0,4.987
	c-3.271,0-8.869,0-8.869,0s0-3.102,0-4.987c0-2.449,1.986-4.435,4.435-4.435C14.536,1.272,16.521,3.258,16.521,5.707z"/>
<circle cx="8.126" cy="16.555" r="0.946"/>
<circle cx="12.136" cy="16.555" r="0.946"/>
<circle cx="16.146" cy="16.555" r="0.945"/>
<rect x="1.156" y="8.49" display="none" fill="#FFFFFF" width="14.531" height="1.375"/>
</svg>
