<?xml version="1.0" encoding="utf-8"?>
<!-- Generator: Adobe Illustrator 16.0.0, SVG Export Plug-In . SVG Version: 6.00 Build 0)  -->
<!DOCTYPE svg PUBLIC "-//W3C//DTD SVG 1.1//EN" "http://www.w3.org/Graphics/SVG/1.1/DTD/svg11.dtd">
<svg version="1.1" id="Layer_1" xmlns="http://www.w3.org/2000/svg" xmlns:xlink="http://www.w3.org/1999/xlink" x="0px" y="0px"
	 width="24px" height="24px" viewBox="0 0 24 24" enable-background="new 0 0 24 24" xml:space="preserve">
<circle fill="none" stroke="#000000" stroke-width="1.7" stroke-miterlimit="10" cx="10.158" cy="10.311" r="8.692"/>
<path d="M15.881,16.432c-0.311,0.336-0.286,0.862,0.05,1.172l5.524,5.149c0.336,0.312,0.862,0.286,1.172-0.051l0,0
	c0.311-0.338,0.287-0.863-0.051-1.173l-5.523-5.148C16.715,16.07,16.189,16.094,15.881,16.432L15.881,16.432z"/>
<circle display="none" fill="none" stroke="#000000" stroke-width="1.7" stroke-miterlimit="10" cx="12" cy="9.645" r="3.592"/>
<path display="none" fill="none" stroke="#000000" stroke-width="1.7" stroke-miterlimit="10" d="M20.605,9.645
	c0,2.501-1.066,4.753-2.771,6.326c-1.533,1.416-6.005,6.711-6.005,6.711s-4.357-5.395-5.915-6.949
	c-1.557-1.56-2.521-3.71-2.521-6.087c0-4.753,3.854-8.606,8.607-8.606S20.605,4.892,20.605,9.645z"/>
<path display="none" fill="none" stroke="#000000" stroke-width="1.7" stroke-miterlimit="10" d="M21.336,20.816
	c0,1.055-0.855,1.912-1.913,1.912H4.577c-1.056,0-1.913-0.857-1.913-1.912v-8.211c0-1.056,0.856-1.913,1.913-1.913h14.846
	c1.058,0,1.913,0.857,1.913,1.913V20.816z"/>
<path display="none" fill="none" stroke="#000000" stroke-width="1.7" stroke-miterlimit="10" d="M16.521,5.707
	c0,1.766,0,4.987,0,4.987c-3.271,0-8.87,0-8.87,0s0-3.102,0-4.987c0-2.449,1.986-4.435,4.435-4.435
	C14.536,1.272,16.521,3.258,16.521,5.707z"/>
<circle display="none" cx="8.126" cy="16.555" r="0.946"/>
<circle display="none" cx="12.136" cy="16.555" r="0.946"/>
<circle display="none" cx="16.146" cy="16.555" r="0.945"/>
<rect x="1.156" y="8.49" display="none" fill="#FFFFFF" width="14.531" height="1.375"/>
</svg>
