<?xml version="1.0" encoding="utf-8"?>
<!-- Generator: Adobe Illustrator 16.0.0, SVG Export Plug-In . SVG Version: 6.00 Build 0)  -->
<!DOCTYPE svg PUBLIC "-//W3C//DTD SVG 1.1//EN" "http://www.w3.org/Graphics/SVG/1.1/DTD/svg11.dtd">
<svg version="1.1" id="Layer_1" xmlns="http://www.w3.org/2000/svg" xmlns:xlink="http://www.w3.org/1999/xlink" x="0px" y="0px"
	 width="15.063px" height="14.875px" viewBox="0 0 15.063 14.875" enable-background="new 0 0 15.063 14.875" xml:space="preserve">
<circle fill="none" stroke="#231F20" stroke-width="1.7" stroke-miterlimit="10" cx="-27.998" cy="8.992" r="9.15"/>
<path fill="#231F20" d="M-21.92,15.154c-0.31,0.337-0.286,0.863,0.05,1.173l5.524,5.149c0.337,0.311,0.863,0.286,1.173-0.051l0,0
	c0.31-0.338,0.286-0.863-0.051-1.172l-5.524-5.149C-21.085,14.794-21.611,14.817-21.92,15.154L-21.92,15.154z"/>
<circle fill="none" stroke="#231F20" stroke-miterlimit="10" cx="-8.64" cy="6.964" r="5.156"/>
<path fill="#231F20" d="M-5.215,10.436c-0.175,0.19-0.162,0.486,0.028,0.661l3.113,2.902c0.19,0.175,0.487,0.161,0.661-0.029l0,0
	c0.174-0.19,0.161-0.486-0.029-0.66l-3.113-2.901C-4.745,10.233-5.041,10.246-5.215,10.436L-5.215,10.436z"/>
<circle fill="none" stroke="#000000" stroke-miterlimit="10" cx="7.531" cy="6.145" r="2.132"/>
<path fill="none" stroke="#000000" stroke-miterlimit="10" d="M12.638,6.145c0,1.484-0.633,2.821-1.645,3.754
	c-0.91,0.84-3.563,3.981-3.563,3.981S4.844,10.679,3.92,9.756C2.997,8.832,2.425,7.555,2.425,6.145c0-2.82,2.287-5.106,5.107-5.106
	C10.351,1.039,12.638,3.325,12.638,6.145z"/>
<circle fill="none" stroke="#231F20" stroke-width="1.7" stroke-miterlimit="10" cx="37.615" cy="9.645" r="3.592"/>
<path fill="none" stroke="#231F20" stroke-width="1.7" stroke-miterlimit="10" d="M46.221,9.645c0,2.501-1.067,4.754-2.772,6.326
	c-1.533,1.416-6.005,6.71-6.005,6.71s-4.357-5.394-5.914-6.949c-1.558-1.559-2.521-3.71-2.521-6.087
	c0-4.753,3.854-8.606,8.607-8.606C42.367,1.039,46.221,4.892,46.221,9.645z"/>
<path display="none" fill="none" stroke="#231F20" stroke-width="1.7" stroke-miterlimit="10" d="M21.586,20.816
	c0,1.055-0.856,1.912-1.913,1.912H4.827c-1.056,0-1.913-0.857-1.913-1.912v-8.21c0-1.056,0.856-1.913,1.913-1.913h14.846
	c1.057,0,1.913,0.857,1.913,1.913V20.816z"/>
<path display="none" fill="none" stroke="#231F20" stroke-width="1.7" stroke-miterlimit="10" d="M16.771,5.707
	c0,1.766,0,4.987,0,4.987c-3.271,0-8.869,0-8.869,0s0-3.102,0-4.987c0-2.449,1.986-4.435,4.435-4.435
	C14.786,1.272,16.771,3.258,16.771,5.707z"/>
<circle display="none" fill="#231F20" cx="8.376" cy="16.555" r="0.946"/>
<circle display="none" fill="#231F20" cx="12.386" cy="16.555" r="0.946"/>
<circle display="none" fill="#231F20" cx="16.396" cy="16.555" r="0.945"/>
<rect x="1.406" y="8.49" display="none" fill="#FFFFFF" width="14.531" height="1.375"/>
</svg>
